<svg width="19" height="19" viewBox="0 0 19 19" fill="none" xmlns="http://www.w3.org/2000/svg">
<path id="Vector" d="M15.3576 6.66001L16.3067 5.71086L15.3576 6.66001ZM15.3576 6.66001L12.3432 3.64563L13.292 2.69684C13.2921 2.69672 13.2922 2.69661 13.2923 2.69649C13.5703 2.4213 13.9257 2.26215 14.3091 2.24014L14.4023 2.23962C14.608 2.23848 14.8119 2.27842 15.0021 2.35709C15.1922 2.43576 15.3647 2.55158 15.5095 2.69777L15.5101 2.69837L16.3063 3.49465C16.3065 3.49475 16.3066 3.49486 16.3067 3.49496C16.6028 3.79411 16.7646 4.18391 16.7657 4.59983L16.7576 4.7642C16.7215 5.12138 16.5655 5.45097 16.3069 5.71063L15.3576 6.66001ZM14.4013 0.825H14.2869L14.2785 0.844136C13.9276 0.857479 13.5816 0.933191 13.2567 1.06803C12.8963 1.21763 12.569 1.43706 12.2937 1.71367C12.2937 1.71372 12.2936 1.71377 12.2936 1.71382L6.66263 7.34476L1.03138 12.976L1.03123 12.9762C0.8992 13.1085 0.82504 13.2878 0.825 13.4748V13.4748V17.4592C0.825 17.6465 0.899409 17.8261 1.03186 17.9586C1.1643 18.091 1.34394 18.1654 1.53125 18.1654H5.64313H5.64316C5.73641 18.1654 5.82872 18.1469 5.91478 18.1111C6.00085 18.0752 6.07896 18.0226 6.1446 17.9564L6.14464 17.9563L17.2995 6.69518C17.2998 6.69495 17.3 6.69471 17.3003 6.69448C17.8607 6.14046 18.1707 5.38699 18.1707 4.59444C18.1707 3.80411 17.86 3.05521 17.2992 2.49444L16.5022 1.69739C16.502 1.69724 16.5019 1.69708 16.5017 1.69693C15.9476 1.13518 15.194 0.825 14.4013 0.825ZM2.24069 13.7799L11.3521 4.64763L14.3669 7.66244L9.89419 12.1765L5.35023 16.7625H2.24069V13.7799Z" fill="#616161" stroke="#616161" stroke-width="0.35"/>
</svg>
