<svg width="24" height="24" viewBox="0 0 24 24" fill="none" xmlns="http://www.w3.org/2000/svg">
<path d="M4.8 19C4.305 19 3.8814 18.8288 3.5292 18.4864C3.177 18.144 3.0006 17.7318 3 17.25V6.75C3 6.26875 3.1764 5.85692 3.5292 5.5145C3.882 5.17208 4.3056 5.00058 4.8 5H19.2C19.695 5 20.1189 5.1715 20.4717 5.5145C20.8245 5.8575 21.0006 6.26933 21 6.75V17.25C21 17.7312 20.8239 18.1434 20.4717 18.4864C20.1195 18.8294 19.6956 19.0006 19.2 19H4.8ZM12 12.7219C12.075 12.7219 12.1539 12.7108 12.2367 12.6886C12.3195 12.6665 12.3981 12.6338 12.4725 12.5906L18.84 8.71875C18.96 8.64583 19.05 8.55483 19.11 8.44575C19.17 8.33667 19.2 8.21621 19.2 8.08437C19.2 7.79271 19.0725 7.57396 18.8175 7.42812C18.5625 7.28229 18.3 7.28958 18.03 7.45L12 11.125L5.97 7.45C5.7 7.28958 5.4375 7.28608 5.1825 7.4395C4.9275 7.59292 4.8 7.80787 4.8 8.08437C4.8 8.23021 4.83 8.35796 4.89 8.46762C4.95 8.57729 5.04 8.661 5.16 8.71875L11.5275 12.5906C11.6025 12.6344 11.6814 12.6673 11.7642 12.6895C11.847 12.7117 11.9256 12.7225 12 12.7219Z" fill="white"/>
</svg>
