<svg width="84" height="89" viewBox="0 0 84 89" fill="none" xmlns="http://www.w3.org/2000/svg">
<g id="Group 365">
<g id="Group 362">
<g id="Group 360">
<path id="Rectangle 1473" d="M59.6782 41.9009L42.4188 60.9445L3.16785 21.6935L18.213 19.1373L21.3194 3.54201L59.6782 41.9009Z" fill="#067DFD"/>
<path id="Vector" d="M15.8114 16.186L17.8317 4.84187C18.122 3.20631 19.1662 2.42113 20.9642 2.48633C22.7603 2.5496 24.4934 3.41621 26.1633 5.08616L59.3188 38.2416C60.6543 39.5772 61.4927 40.9674 61.8339 42.4121C62.1751 43.8568 61.9355 44.9913 61.1151 45.8156L45.4392 61.4915C44.6169 62.3138 43.4824 62.5534 42.0357 62.2103C40.589 61.8672 39.1994 61.0282 37.867 59.6934L4.71154 26.5379C3.04159 24.868 2.17498 23.135 2.11171 21.3389C2.0465 19.5408 2.83169 18.4967 4.46725 18.2063L15.8114 16.186ZM19.0672 19.4419L6.50311 21.6616C5.87631 21.7665 5.58221 22.1708 5.6208 22.8744C5.66133 23.5799 5.99762 24.2487 6.62965 24.8807L39.6517 57.9028C40.0982 58.3493 40.6224 58.6447 41.2242 58.7889C41.8261 58.9331 42.2653 58.867 42.5418 58.5905L58.2158 42.9164C58.4911 42.6411 58.5583 42.2029 58.4172 41.6018C58.2761 41.0007 57.9807 40.4765 57.5311 40.0293L24.5032 7.00138C23.8712 6.36935 23.2034 6.03403 22.4998 5.99543C21.7962 5.95683 21.3919 6.25094 21.287 6.87774L19.0672 19.4419ZM50.3788 50.7534L59.317 41.8152L41.4406 59.6917L50.3788 50.7534Z" fill="#067DFD"/>
</g>
<rect id="Rectangle 1500" x="64.3828" y="1.12793" width="28.0467" height="27.209" rx="1" transform="rotate(46.3682 64.3828 1.12793)" fill="#329CFF"/>
</g>
<g id="&#234;&#176;&#144;&#236;&#132;&#177;&#236;&#189;&#148;&#236;&#150;&#180;">
<path id="Vector_2" d="M66.2954 80.3504C66.2954 77.8576 66.1214 76.0399 65.4599 75.2089C65.1466 74.7761 64.6592 74.5511 64.0848 74.5511C63.5278 74.5511 63.0404 74.7761 62.7097 75.2089C62.0831 76.0399 61.8916 77.8576 61.8916 80.3504C61.8916 82.8432 62.0831 84.6609 62.7097 85.5092C63.0404 85.9073 63.5278 86.1324 64.0848 86.1324C64.6592 86.1324 65.1466 85.9073 65.4599 85.5092C66.1214 84.6609 66.2954 82.8432 66.2954 80.3504ZM60.0117 80.3504C60.0117 77.5113 60.2902 75.382 61.2998 74.1529C61.9438 73.3566 62.9186 72.9238 64.0848 72.9238C65.2685 72.9238 66.2258 73.3566 66.8872 74.1529C67.7576 75.2089 68.0883 76.9227 68.1579 79.1732H70.9081V72.9238H72.8054V88.6252H70.9081V80.8005H68.1753C68.1405 83.4145 67.8446 85.388 66.8872 86.5478C66.2258 87.3442 65.2685 87.7423 64.0848 87.7423C62.9186 87.7423 61.9438 87.3442 61.2998 86.5478C60.2902 85.3187 60.0117 83.1894 60.0117 80.3504Z" fill="black"/>
<path id="Vector_3" d="M54.3966 79.1082C53.0616 79.4157 51.2932 79.5182 49.4207 79.5182H43.9594V77.8952H49.4554C51.2412 77.8952 53.0616 77.8269 54.3966 77.5706V74.5639H43.9594V72.9238H56.2864V78.664C56.2864 80.5603 56.1304 82.4053 55.8703 83.6695H54.0152C54.2579 82.4224 54.3966 80.6286 54.3966 79.1082ZM43.1445 87.4621V85.8563H47.8257V81.1753H49.7155V85.8563H57.1013V87.4621H43.1445Z" fill="black"/>
<path id="Vector_4" d="M31.7827 73.0253V74.9203C31.7827 77.5767 33.3256 78.9472 35.3828 79.5394V81.1637C33.3611 80.7576 31.6763 79.6747 30.8428 78.3889C30.0803 79.7255 28.3778 80.876 26.2852 81.3498V79.7255C28.3955 79.0826 29.8675 77.509 29.8675 74.9203V73.0253H31.7827ZM39.8695 81.6713H37.9365V77.2891H34.4251V75.7156H37.9365V72.9238H39.8695V81.6713ZM33.9286 88.6252C32.0842 88.6252 30.2576 88.3883 29.0339 87.6608C28.1827 87.1532 27.633 86.3918 27.633 85.3597C27.633 84.3276 28.1827 83.5662 29.0339 83.0587C30.2576 82.348 32.0842 82.0942 33.9286 82.0942C35.7729 82.0942 37.6173 82.348 38.8232 83.0587C39.6744 83.5662 40.2419 84.3276 40.2419 85.3597C40.2419 86.3918 39.6744 87.1532 38.8232 87.6608C37.6173 88.3883 35.7729 88.6252 33.9286 88.6252ZM33.9286 83.6678C32.4744 83.6678 31.0556 83.837 30.2399 84.3107C29.8143 84.5814 29.5482 84.9198 29.5482 85.3597C29.5482 85.7996 29.8143 86.138 30.2399 86.3918C31.0556 86.8656 32.4744 87.0517 33.9286 87.0517C35.4005 87.0517 36.8192 86.8656 37.6173 86.3918C38.0429 86.138 38.3089 85.7996 38.3089 85.3597C38.3089 84.9198 38.0429 84.5814 37.6173 84.3107C36.8192 83.837 35.4005 83.6678 33.9286 83.6678Z" fill="black"/>
<path id="Vector_5" d="M16.0203 74.7237H10.3633V73.1124H17.9059V74.2266C17.9059 79.1118 14.9477 81.1345 10 81.6487V80.0203C13.8578 79.6261 16.0203 77.9119 16.0203 74.7237ZM22.8363 72.9238V76.4206H25.1198V78.0491H22.8363V81.5973H20.9506V72.9238H22.8363ZM11.2629 88.6252V82.5915H22.8363V88.6252H11.2629ZM20.9506 84.1856H13.1312V87.0482H20.9506V84.1856Z" fill="black"/>
</g>
</g>
</svg>
