<svg width="30" height="31" viewBox="0 0 30 31" fill="none" xmlns="http://www.w3.org/2000/svg">
<path fill-rule="evenodd" clip-rule="evenodd" d="M15 0.177734C16.9698 0.177725 18.9204 0.565704 20.7402 1.31952C22.5601 2.07333 24.2137 3.17822 25.6066 4.5711C26.9995 5.96398 28.1044 7.61757 28.8582 9.43745C29.612 11.2573 30 13.2079 30 15.1777C30 23.462 23.2843 30.1778 15 30.1778C6.71576 30.1778 0 23.462 0 15.1777C0 6.89349 6.71576 0.177734 15 0.177734ZM16.5 16.6778H13.5C9.78645 16.6778 6.59827 18.9268 5.22316 22.1374C7.39891 25.1883 10.9671 27.1777 15 27.1777C19.0328 27.1777 22.601 25.1883 24.7769 22.1372C23.4018 18.9268 20.2136 16.6778 16.5 16.6778ZM15 4.67773C12.5147 4.67773 10.5 6.69247 10.5 9.17774C10.5 11.663 12.5147 13.6777 15 13.6777C17.4852 13.6777 19.5 11.663 19.5 9.17774C19.5 6.69247 17.4853 4.67773 15 4.67773Z" fill="#9E9E9E"/>
</svg>
