<svg width="22" height="22" viewBox="0 0 22 22" fill="none" xmlns="http://www.w3.org/2000/svg">
<g id="material-symbols:share">
<path id="Vector" d="M15.5833 20.1668C14.8194 20.1668 14.1701 19.8995 13.6353 19.3647C13.1006 18.83 12.8333 18.1807 12.8333 17.4168C12.8333 17.3252 12.8562 17.1113 12.902 16.7752L6.46242 13.0168C6.21797 13.246 5.93534 13.4257 5.6145 13.5558C5.29367 13.686 4.94992 13.7508 4.58325 13.7502C3.81936 13.7502 3.17006 13.4828 2.63534 12.9481C2.10061 12.4134 1.83325 11.7641 1.83325 11.0002C1.83325 10.2363 2.10061 9.58697 2.63534 9.05225C3.17006 8.51752 3.81936 8.25016 4.58325 8.25016C4.94992 8.25016 5.29367 8.31525 5.6145 8.44541C5.93534 8.57558 6.21797 8.75494 6.46242 8.9835L12.902 5.22516C12.8714 5.11822 12.8525 5.01525 12.8452 4.91625C12.8378 4.81725 12.8339 4.70633 12.8333 4.5835C12.8333 3.81961 13.1006 3.1703 13.6353 2.63558C14.1701 2.10086 14.8194 1.8335 15.5833 1.8335C16.3471 1.8335 16.9964 2.10086 17.5312 2.63558C18.0659 3.1703 18.3333 3.81961 18.3333 4.5835C18.3333 5.34738 18.0659 5.99669 17.5312 6.53141C16.9964 7.06613 16.3471 7.3335 15.5833 7.3335C15.2166 7.3335 14.8728 7.26841 14.552 7.13825C14.2312 7.00808 13.9485 6.82872 13.7041 6.60016L7.2645 10.3585C7.29506 10.4654 7.31431 10.5687 7.32225 10.6683C7.3302 10.7679 7.33386 10.8786 7.33325 11.0002C7.33264 11.1218 7.32897 11.2327 7.32225 11.3329C7.31553 11.4331 7.29628 11.5361 7.2645 11.6418L13.7041 15.4002C13.9485 15.171 14.2312 14.9916 14.552 14.8621C14.8728 14.7325 15.2166 14.6674 15.5833 14.6668C16.3471 14.6668 16.9964 14.9342 17.5312 15.4689C18.0659 16.0036 18.3333 16.6529 18.3333 17.4168C18.3333 18.1807 18.0659 18.83 17.5312 19.3647C16.9964 19.8995 16.3471 20.1668 15.5833 20.1668Z" fill="#616161"/>
</g>
</svg>
